<svg width="42" height="32" fill="none" xmlns="http://www.w3.org/2000/svg"><g clip-path="url(#clip0)" fill="#fff"><path d="M23.142 23.724c-.014 2.088-1.09 4.735-2.298 4.818-1.209.084-2.135-2.498-2.12-4.586.013-2.087 1.02-2.995 2.275-3.014 1.208-.083 2.212.703 2.143 2.782z"/><path fill-rule="evenodd" clip-rule="evenodd" d="M13.99 23.908c1.56.879 3.276 1.501 5.011 2.014a25.907 25.907 0 01-4.872-2.16c-1.484-.98-2.821-2.161-3.835-3.571-1.069-1.42-1.703-3.05-1.986-4.734-.232-1.468-.187-2.89.04-4.316a14.076 14.076 0 011.756.03c-.28 1.799-.093 3.65.475 5.342.634 1.969 1.768 3.681 3.233 5.11 1.466 1.429 3.284 2.463 5.158 3.168 1.873.705 3.858 1.09 5.88 1.253-1.957-.21-3.933-.649-5.778-1.519-1.81-.75-3.497-1.877-4.852-3.287-1.356-1.41-2.378-3.104-2.865-4.936a10.523 10.523 0 01-.212-5.011c.725.11 1.396.266 2 .443-.306 1.842-.063 3.712.632 5.422.708 1.869 1.961 3.545 3.51 4.818a12.885 12.885 0 005.362 2.637 13 13 0 005.94-.094 12.004 12.004 0 01-5.838-.172 11.76 11.76 0 01-5.056-2.756c-1.43-1.31-2.526-2.903-3.133-4.699-.542-1.533-.705-3.223-.412-4.825a12.75 12.75 0 012.09.973c2.066 1.245 2.804 2.271 3.466 3.737 5.427-3.409 5.852-.517 6.306 2.576.357 2.43.732 4.984 3.565 4.706a7.83 7.83 0 01-1.137.66c-2.986 1.485-4.335 2.054-10.319 1.066C8.48 24.19 6.023 17.85 6.04 13.387c.014-.673.125-1.396.245-1.994.343-.07.682-.124 1.016-.165a14.166 14.166 0 00.25 4.329 11.765 11.765 0 002.3 4.899c1.125 1.428 2.582 2.572 4.14 3.451zM6.285 11.394L6.6 10.09s-.164.552-.315 1.304z"/><path fill-rule="evenodd" clip-rule="evenodd" d="M34.205 5.035c.639.574 1.488 1.337 2.553 1.512 1.63.27 2.9-.395 3.7-.813.722-.378 1.061-.555.937.336-.317 1.869-1.114 3.206-3.811 3.665-.317 1.53-3.077 11.755-8.013 14.33-2.53 1.301-11.884 4.593-9.806-2.285-.89-.744.066-2.516.847-3.964.573-1.06 1.051-1.948.643-2.13-.145-.066-.363.018-.573.098-.265.101-.515.197-.584-.017-.35-1.08-1.374-2.275-3.713-3.598-2.881-1.63-4.65-1.755-8.066-1.996-.528-.038-1.095-.078-1.711-.127 0 0 .632-2.382 2.57-2.062 21.107 3.485 26.45.863 26.45.863-1.385-.228-3.19-3.013-2.7-4.231.23-.52.653-.14 1.277.42zm-11.433 8.076c-.118.698-.76 1.173-1.433 1.062-.673-.11-1.122-.767-1.004-1.465.119-.698.76-1.173 1.433-1.062.673.11 1.122.767 1.004 1.465z"/><path d="M29.77 23.98c-.058 2.7-1.372 6.094-2.925 6.175-1.552.081-2.77-3.168-2.712-5.868.057-2.7 1.324-3.788 2.876-3.87 1.562-.136 2.818.863 2.76 3.563z"/></g><defs><clipPath id="clip0"><path fill="#fff" d="M0 0h42v32H0z"/></clipPath></defs></svg>